<?xml version="1.0" encoding="utf-8"?>
<!-- Generator: Adobe Illustrator 19.1.0, SVG Export Plug-In . SVG Version: 6.00 Build 0)  -->
<svg version="1.1" id="Capa_1" xmlns="http://www.w3.org/2000/svg" xmlns:xlink="http://www.w3.org/1999/xlink" x="0px" y="0px"
	 viewBox="-295 387 20 20" style="enable-background:new -295 387 20 20;" xml:space="preserve">
<style type="text/css">
	.st0{fill:#92624B;}
</style>
<path class="st0" d="M-278.9,387h-12.2c-2.2,0-3.9,1.7-3.9,3.9v4.1v8.2c0,2.1,1.7,3.8,3.9,3.8h12.3c2.1,0,3.9-1.7,3.9-3.9v-8.2v-4
	C-275,388.7-276.7,387-278.9,387z M-277.8,389.3h0.4v0.4v2.9h-3.4v-3.4L-277.8,389.3z M-287.9,394.9c0.7-0.8,1.7-1.4,2.9-1.4
	s2.2,0.6,2.9,1.5c0.4,0.6,0.7,1.3,0.7,2.1c0,1.9-1.6,3.5-3.5,3.5s-3.6-1.7-3.6-3.6C-288.5,396.2-288.3,395.5-287.9,394.9z
	 M-276.9,403.1c0,1.1-0.9,1.9-1.9,1.9h-12.3c-1.1,0-1.9-0.9-1.9-1.9v-8.2h3c-0.3,0.7-0.5,1.4-0.5,2.1c0,3,2.5,5.5,5.5,5.5
	s5.5-2.5,5.5-5.5c0-0.7-0.1-1.4-0.4-2.1h3V403.1z"/>
</svg>
