<?xml version="1.0" encoding="utf-8"?>
<!-- Generator: Adobe Illustrator 19.1.0, SVG Export Plug-In . SVG Version: 6.00 Build 0)  -->
<svg version="1.1" id="Capa_1" xmlns="http://www.w3.org/2000/svg" xmlns:xlink="http://www.w3.org/1999/xlink" x="0px" y="0px"
	 viewBox="-293 387 24.6 20" style="enable-background:new -293 387 24.6 20;" xml:space="preserve">
<style type="text/css">
	.st0{fill:#92624B;}
</style>
<path class="st0" d="M-268.4,389.4c-0.9,0.4-1.9,0.7-2.9,0.8c1-0.6,1.8-1.6,2.2-2.8c-1,0.6-2.1,1-3.2,1.2c-0.9-1-2.2-1.6-3.7-1.6
	c-2.8,0-5,2.3-5,5c0,0.4,0,0.8,0.1,1.1c-4.2-0.1-7.9-2.1-10.4-5.2c-0.4,0.8-0.7,1.6-0.7,2.6c0,1.7,0.9,3.3,2.2,4.2
	c-0.8-0.1-1.5-0.3-2.2-0.7v0.1c0,2.4,1.7,4.5,4.1,5c-0.4,0.1-0.9,0.2-1.3,0.2c-0.3,0-0.6,0-0.9-0.1c0.6,2,2.5,3.5,4.7,3.5
	c-1.7,1.4-3.9,2.2-6.3,2.2c-0.4,0-0.8,0-1.2-0.1c2.1,1.4,4.8,2.2,7.6,2.2c9.3,0,14.4-7.7,14.4-14.4c0-0.2,0-0.4,0-0.7
	C-269.9,391.3-269.1,390.4-268.4,389.4"/>
</svg>
