<?xml version="1.0" encoding="utf-8"?>
<!-- Generator: Adobe Illustrator 19.1.0, SVG Export Plug-In . SVG Version: 6.00 Build 0)  -->
<svg version="1.1" id="Layer_1" xmlns="http://www.w3.org/2000/svg" xmlns:xlink="http://www.w3.org/1999/xlink" x="0px" y="0px"
	 viewBox="-270 344.6 70.3 104.4" style="enable-background:new -270 344.6 70.3 104.4;" xml:space="preserve">
<style type="text/css">
	.st0{fill:#92624B;}
</style>
<g id="Layer_1_1_">
</g>
<g id="Layer_2">
</g>
<g id="Layer_3">
	<g>
		<path class="st0" d="M-199.7,445.6c-3.3,0.7-8.1-1.1-12.6-7.3c-5.1-7-9.7-17.2-23.6-31.1c-10.5-10.7-26.2-11-31.8-11V447h8.9v-0.2
			c-2.7,0-3.7-7.8-3.7-10.1l-0.4-36.2c30.4-0.1,36.7,35.5,46.8,44.7c2.2,2,4.6,3.8,7.6,3.8C-206.7,449-201.1,448.1-199.7,445.6
			L-199.7,445.6z"/>
		<path class="st0" d="M-240.1,344.6c-12.8,0-29.9,7.6-29.9,24.7c0,17,16,25.7,30,25.7s29.8-7.5,29.8-25.4S-227.1,344.6-240.1,344.6
			z M-240.1,388.7c-12.6,0-27.5-5.9-27.5-18.9c0-13,16-18.9,27.5-18.9c11.7,0,27.5,5.2,27.5,18.9
			C-212.6,383.5-227.5,388.7-240.1,388.7z"/>
	</g>
</g>
<g id="Layer_4">
</g>
</svg>
