<?xml version="1.0" encoding="utf-8"?>
<!-- Generator: Adobe Illustrator 19.1.0, SVG Export Plug-In . SVG Version: 6.00 Build 0)  -->
<svg version="1.1" xmlns="http://www.w3.org/2000/svg" xmlns:xlink="http://www.w3.org/1999/xlink" x="0px" y="0px"
	 viewBox="0 0 150 234.2" style="enable-background:new 0 0 150 234.2;" xml:space="preserve">
<style type="text/css">
	.st0{fill:#F7F0E6;}
</style>
<g id="Layer_1">
</g>
<g id="Layer_2">
</g>
<g id="Layer_3">
	<g>
		<g>
			<path class="st0" d="M0.3,171.1c1.5,1.4,3.3,2,5.1,2c2.4,0,4.7-1.1,4.7-4c0-2.7-2-4-4.1-5.1c-2.4-1.3-4.9-2.7-4.9-5.8
				c0-3.1,2.6-4.9,6.1-4.9c1.2,0,2.8,0.2,4.1,0.7l0.2,3.9h-0.1c-0.5-2.2-1.9-3.7-4.5-3.7c-2.3,0-4.1,1.2-4.1,3.5
				c0,2.5,2,3.7,4.2,4.9c2.5,1.4,5,2.7,5,6.1c0,3.6-2.9,5.4-6.3,5.4c-2.9,0-4.6-1.3-5.7-2.7L0.3,171.1z"/>
			<path class="st0" d="M41,156.6c-0.4-1-0.8-2.2-1.5-3H42c0,0.2,0.3,1.3,0.9,2.7l6.1,14.1l5.6-13.1c0.6-1.3,1.4-3.3,1.1-3.7h1.8
				c-0.3,0.3-1.4,2.7-1.6,3.3l-7.3,17h-0.2L41,156.6z"/>
		</g>
		<path class="st0" d="M85.8,153.3H86l15.7,16.7v-13.8c0-0.5,0-2.5-0.6-2.6v-0.1h1.7v17.6c0,0.7,0,1.8,0.1,2.6h-0.1l-15.8-16.8v13.9
			c0,0.5,0,2.5,0.6,2.6v0.1h-1.7V153.3z"/>
		<path class="st0" d="M21.8,155.8c0-0.3-0.1-1.6-0.5-2.1v-0.1h9.8l0.2,3.2h-0.1c-0.3-1.7-1.6-2.3-3.9-2.3h-3.6v8.2h3.7
			c0.6,0,2.7-0.1,2.9-0.4h0.1v2.4h-0.1c-0.1-1-2.4-1.1-3.3-1.1h-3.3v8.3c0,0.8,0.8,0.8,1.9,0.8h2.4c2.9,0,3.7-0.7,4.1-2.3h0.1
			l-0.2,3.2H21.8V155.8z"/>
		<path class="st0" d="M66,155.8c0-0.3-0.1-1.6-0.5-2.1v-0.1h9.8l0.2,3.2h-0.1c-0.3-1.7-1.6-2.3-3.9-2.3H68v8.2h3.7
			c0.6,0,2.7-0.1,2.9-0.4h0.1v2.4h-0.1c-0.1-1-2.4-1.1-3.3-1.1H68v8.3c0,0.8,0.8,0.8,1.9,0.8h2.4c2.9,0,3.7-0.7,4.1-2.3h0.1
			l-0.2,3.2H66V155.8z"/>
		<path class="st0" d="M141.3,165.9l-4.4-7.8c-0.4-0.7-2.4-4.3-2.7-4.5h2.6c0.1,0.6,0.4,1.3,1.8,3.6l4.1,7.3l4.8-8.8
			c0.6-1.1,0.8-1.8,0.8-2.1h1.8c-0.3,0.3-1.4,2-1.9,2.9l-3.5,6.4c-0.1,0.2-0.5,1-0.7,1.4c-0.5,1.1-0.6,2.2-0.6,3.7v3.1
			c0,0.5,0.1,2.6,0.7,2.6v0.1h-2.7V165.9z"/>
		<path class="st0" d="M117.9,156.1c0-1.4-0.7-1.6-2.4-1.6c-2.2,0-4.2,0.4-4.5,2.4H111l0.1-3.3h15.5l0.1,3.3h-0.1
			c-0.3-2.1-2.2-2.4-4.5-2.4c-1.6,0-2.4,0.2-2.4,1.6v15c0,0.5,0.1,2.6,0.7,2.6v0.1h-2.7V156.1z"/>
	</g>
	<g>
		<path class="st0" d="M47.4,225.4l-3.7-8.9l-3.7,8.9H47.4z M35.1,234c0.3-0.5,0.6-1.3,1.2-2.7l7.8-18.1h0.1l6.9,16.1
			c0.6,1.4,1.8,4.3,2.8,4.6v0.1H51l-3.2-7.7h-8.2l-2.3,5.6c-0.4,1-0.7,1.8-0.1,2v0.1H35.1z"/>
		<path class="st0" d="M62,216c0-0.3-0.1-1.6-0.5-2.1v-0.1h2.4v17.5c0,0.5,0.1,2.6,0.7,2.6v0.1H62V216z"/>
		<path class="st0" d="M74.4,213.6h0.1l15.7,16.7v-13.8c0-0.5,0-2.5-0.6-2.6v-0.1h1.7v17.6c0,0.7,0,1.8,0.1,2.6h-0.1l-15.8-16.8
			v13.9c0,0.5,0,2.5,0.6,2.6v0.1h-1.7V213.6z"/>
		<path class="st0" d="M101.7,216c0-0.3-0.1-1.6-0.5-2.1v-0.1h9.8l0.2,3.2h-0.1c-0.3-1.7-1.6-2.3-3.9-2.3h-3.7v8.2h3.7
			c0.6,0,2.7-0.1,2.9-0.4h0.1v2.4h-0.1c-0.1-1-2.4-1.1-3.3-1.1h-3.3v8.3c0,0.8,0.8,0.8,1.9,0.8h2.4c2.9,0,3.7-0.7,4.1-2.3h0.1
			L112,234h-10.3V216z"/>
		<path class="st0" d="M126.5,226.2l-4.4-7.8c-0.4-0.7-2.4-4.3-2.7-4.5h2.6c0.1,0.6,0.4,1.3,1.8,3.6l4.1,7.3l4.8-8.8
			c0.6-1.1,0.8-1.8,0.8-2.1h1.8c-0.3,0.3-1.4,2-1.9,2.9l-3.5,6.4c-0.1,0.2-0.5,1-0.7,1.4c-0.5,1.1-0.6,2.2-0.6,3.7v3.1
			c0,0.5,0.1,2.6,0.7,2.6v0.1h-2.7V226.2z"/>
		<path class="st0" d="M17.2,223.1c0.3,0.5,1.6,0.7,2.5,0.7c2.9,0,4.5-1.8,4.5-4.6c0-2.8-1.7-4.4-4.7-4.4c-0.6,0-1.5,0.1-2.3,0.2
			V223.1z M15.3,216c0-0.3-0.1-1.6-0.5-2.1v-0.1h4.7c3.6,0,6.6,1.4,6.6,5.2c0,2.7-1.8,4.5-4.5,5.3c2.1,0.8,5.3,9.3,7.2,9.6v0.1h-2.9
			c-0.7-1.3-1.4-2.5-2.1-3.8l-1.2-2.2c-1.5-2.7-2.5-3.7-5.5-3.7v7c0,0.5,0.1,2.6,0.7,2.6v0.1h-2.6V216z"/>
	</g>
	<rect y="193.6" class="st0" width="149.9" height="0.4"/>
	<g>
		<path class="st0" d="M112.2,101c-3.3,0.7-8.1-1.1-12.6-7.3c-5.1-7-9.7-17.2-23.6-31.1C65.4,51.9,49.7,51.6,44.1,51.6l0,50.8l8.9,0
			v-0.2c-2.7,0-3.7-7.8-3.7-10.1l-0.3-36.2c30.4-0.1,36.7,35.5,46.8,44.7c2.2,2,4.6,3.8,7.6,3.8C105.2,104.4,110.8,103.5,112.2,101
			L112.2,101z"/>
		<path class="st0" d="M71.8,0C59,0,41.9,7.6,41.9,24.7c0,17,16,25.7,30,25.7s29.9-7.5,29.9-25.4S84.8,0,71.8,0z M71.8,44.1
			c-12.6,0-27.5-5.9-27.5-18.9c0-13,16-18.9,27.5-18.9c11.7,0,27.5,5.2,27.5,18.9S84.4,44.1,71.8,44.1z"/>
	</g>
</g>
<g id="Layer_4">
</g>
</svg>
