<?xml version="1.0" encoding="utf-8"?>
<!-- Generator: Adobe Illustrator 19.1.0, SVG Export Plug-In . SVG Version: 6.00 Build 0)  -->
<svg version="1.1" id="Layer_1" xmlns="http://www.w3.org/2000/svg" xmlns:xlink="http://www.w3.org/1999/xlink" x="0px" y="0px"
	 viewBox="-176 372 258.3 50" style="enable-background:new -176 372 258.3 50;" xml:space="preserve">
<style type="text/css">
	.st0{fill:#92624B;}
</style>
<g>
	<g>
		<path class="st0" d="M-156.9,392.6c-0.8-0.9-1.7-1.7-2.7-2.4c-1.1-0.8-2.3-1.5-3.7-2.2l0.4,0.2c-2.3-1.2-4.2-2.5-5.8-3.7
			c-1.8-1.5-2.6-3-2.6-4.5c0-1.6,0.6-2.9,1.7-3.9c1.1-1,2.5-1.5,4.3-1.5c2.4,0,4.3,0.6,5.7,1.7c1.4,1.1,2.4,2.5,2.9,4.1l0.8-0.1
			l-0.7-7.7h-0.6c0,0.2-0.1,0.4-0.2,0.6c-0.1,0.2-0.4,0.4-0.7,0.4c-0.3-0.1-0.8-0.2-1.3-0.3c-0.5-0.2-1.1-0.3-1.8-0.5
			c-1.3-0.6-2.7-0.8-4.2-0.8c-2.8,0-5.1,0.8-7,2.5c-1.9,1.7-2.9,3.7-2.9,6c0,2.6,0.9,4.7,2.6,6.3c0.9,0.8,1.8,1.5,2.8,2.2
			s2.2,1.4,3.5,2.1c1.1,0.6,2.1,1.2,2.9,1.8c0.9,0.6,1.6,1.2,2.3,1.8c1.4,1.2,2.1,2.8,2.1,4.7c0,0.9-0.2,1.7-0.5,2.5
			c-0.4,0.8-0.8,1.4-1.5,2c-0.6,0.6-1.3,1-2.2,1.3c-0.8,0.3-1.8,0.5-2.7,0.5c-1.2,0-2.3-0.2-3.3-0.5c-1-0.3-1.9-0.8-2.7-1.4
			c-0.8-0.6-1.5-1.3-2.1-2c-0.6-0.8-1.1-1.6-1.5-2.4l-0.4,0.1l0.9,7.7h0.6c0-0.1,0.1-0.3,0.2-0.5c0.1-0.2,0.3-0.3,0.7-0.4
			c0.4,0.1,0.8,0.2,1.4,0.4c0.5,0.2,1.2,0.4,2,0.6c1.5,0.4,3.1,0.6,4.7,0.6c3.1,0,5.6-0.9,7.7-2.7c2.2-1.8,3.2-4,3.2-6.6
			c0-1.2-0.2-2.3-0.6-3.4C-155.5,394.4-156.1,393.4-156.9,392.6z"/>
		<path class="st0" d="M-118.8,405.1l-13.6-32.8h-2.3l-13.1,31.5c-0.4,0.9-0.8,1.6-1.4,2.1c-0.5,0.5-1.2,0.9-1.9,0.9v0.5h7.7v-0.5
			c-0.8,0-1.4-0.2-1.7-0.5c-0.1-0.1-0.2-0.4-0.2-0.7c0-0.3,0.1-0.9,0.4-1.6l2.9-7.2h15.4l3.2,7.8c0.2,0.4,0.3,0.8,0.2,1.1
			c0,0.3-0.1,0.5-0.2,0.6c-0.3,0.3-0.9,0.4-1.7,0.4v0.5h8.7v-0.5c-0.4-0.1-0.8-0.2-1.1-0.4C-118,406.3-118.4,405.8-118.8,405.1z
			 M-141.1,394.4l6.8-16.7l6.8,16.7H-141.1z"/>
		<path class="st0" d="M-91.2,404.5c-1.8,0.6-3.6,0.9-5.4,0.9c-4.2,0-7.5-1.4-9.9-4.1c-2.4-2.7-3.6-6.5-3.6-11.3
			c0-4.7,1.2-8.4,3.5-11.3c2.4-2.8,5.6-4.2,9.7-4.2c1,0,1.9,0.1,2.8,0.4c0.9,0.2,1.9,0.6,2.7,1c0.9,0.5,1.7,1.1,2.5,1.8
			c0.7,0.8,1.3,1.7,1.9,2.9l0.6-0.2V379l-0.3-7h-0.6c-0.1,0.3-0.2,0.6-0.5,0.9c-0.2,0.3-0.5,0.5-0.8,0.5c-0.3-0.1-0.8-0.2-1.4-0.4
			s-1.3-0.3-2.1-0.5c-1.7-0.3-3.5-0.5-5.4-0.5c-5,0-9.2,1.7-12.5,5.1c-3.2,3.4-4.9,7.7-4.9,13c0,5.5,1.6,9.8,4.7,13.1
			c3.1,3.2,7.4,4.9,12.6,4.9c2.3,0,4.3-0.3,6.2-1c1.9-0.6,3.7-1.7,5.3-3.1l-0.7-1.9C-87.9,403.1-89.4,403.9-91.2,404.5z"/>
		<path class="st0" d="M-19.5,401l-12.4-28.3h-8v0.5h0.8c0.8,0,1.3,0.2,1.6,0.5c0.2,0.4,0.4,1,0.4,2V403c0,1.4-0.1,2.4-0.4,3
			c-0.2,0.6-0.8,0.8-1.6,0.8h-0.8v0.5h8.2v-0.5h-0.8c-0.8,0-1.2-0.3-1.5-0.8c-0.2-0.6-0.4-1.6-0.4-3v-25.7l13.1,30h1.7l13.1-30.7
			v27.6c0,1-0.1,1.6-0.4,2c-0.2,0.4-0.7,0.5-1.5,0.5H-9v0.5h9.4v-0.5h-0.7c-0.7,0-1.2-0.2-1.4-0.5c-0.2-0.4-0.3-1-0.3-2v-28.5
			c0-1,0.1-1.6,0.3-2c0.2-0.4,0.7-0.5,1.4-0.5h0.7v-0.5h-7.8L-19.5,401z"/>
		<path class="st0" d="M40.7,405.1l-13.6-32.8h-2.3l-13.1,31.5c-0.4,0.9-0.8,1.6-1.4,2.1c-0.5,0.5-1.2,0.9-1.9,0.9v0.5h7.7v-0.5
			c-0.8,0-1.4-0.2-1.7-0.5c-0.1-0.1-0.2-0.4-0.2-0.7c0-0.3,0.1-0.9,0.4-1.6l2.9-7.2h15.4l3.2,7.8c0.2,0.4,0.3,0.8,0.2,1.1
			c0,0.3-0.1,0.5-0.2,0.6c-0.3,0.3-0.9,0.4-1.7,0.4v0.5h8.7v-0.5c-0.4-0.1-0.8-0.2-1.1-0.4C41.5,406.3,41.1,405.8,40.7,405.1z
			 M18.4,394.4l6.8-16.7l6.8,16.7H18.4z"/>
		<path class="st0" d="M74,372.7v0.5h0.9c0.8,0,1.3,0.3,1.6,0.8c0.2,0.5,0.3,1.5,0.3,3v23.7c-3.2-4.8-6.4-9.5-9.6-14
			c-3.2-4.5-6.4-9.2-9.6-14h-6.8v0.5h0.6c0.3,0,0.6,0,0.7,0.1c0.2,0.1,0.4,0.2,0.5,0.5l0.9,1.6v27.8c0,1.4-0.1,2.3-0.4,2.9
			c-0.2,0.5-0.8,0.8-1.6,0.8h-0.8v0.5h8.2v-0.5h-0.8c-0.8,0-1.3-0.3-1.5-0.8s-0.4-1.5-0.4-2.9v-25L77,407.6h2.6V377
			c0-1.4,0.1-2.4,0.4-3c0.2-0.5,0.8-0.8,1.5-0.8h0.8v-0.5H74z"/>
		<path class="st0" d="M-66.6,387.6l13.1-12.9c0.6-0.6,1.1-1,1.6-1.2c0.4-0.2,1.1-0.3,1.9-0.4v-0.4h-9.5v0.5h0.4
			c1.1,0,1.6,0.3,1.6,0.9c0,0.3-0.2,0.6-0.4,1c-0.3,0.4-0.6,0.8-1.1,1.3l-12.8,12.4v-13c0-1,0.1-1.6,0.3-2c0.2-0.4,0.7-0.5,1.5-0.5
			h0.7v-0.6h-9.5v0.5h0.8c0.8,0,1.3,0.2,1.5,0.5c0.2,0.4,0.3,1,0.3,2v28.6c0,1-0.1,1.6-0.3,2c-0.2,0.4-0.7,0.5-1.5,0.5h-0.7v0.5h9.5
			v-0.5h-0.7c-0.8,0-1.3-0.2-1.5-0.5c-0.2-0.4-0.3-1-0.3-2v-12.1l2-1.8c4.5,5.1,25,27.1,39.9,24.4
			C-33.3,415.3-45.2,414.1-66.6,387.6z"/>
		<path class="st0" d="M-29.8,414.9c0.7-0.1,1.1-0.2,1.1-0.2C-29,414.8-29.4,414.8-29.8,414.9z"/>
	</g>
	<g>
		<path class="st0" d="M-29.8,415.1c0.8-0.1,1.1-0.2,1.1-0.2C-29.1,414.9-29.4,415-29.8,415.1z"/>
		<path class="st0" d="M-17,414.5l-3,7.4h1.3l0.8-2.2h2.7l0.8,2.2h1.3l-2.9-7.4H-17z M-15.5,418.6h-1.8l0.9-2.4L-15.5,418.6z"/>
		<path class="st0" d="M5.2,418.9c0,1.4-0.6,2-1.9,2c-1.3,0-1.9-0.6-1.9-2v-4.4H0.2v4.3c0,2,1.1,3.2,3,3.2s3-1.2,3-3.2v-4.3H5v4.4
			H5.2z"/>
		<path class="st0" d="M22.8,417.5c-0.9-0.3-1.4-0.4-1.4-0.9c0-0.8,0.8-1,1.5-1s1.2,0.2,1.6,0.4l0.3,0.2v-1.3l-0.1-0.1
			c-0.6-0.3-1.2-0.4-1.8-0.4c-1.9,0-2.6,1.1-2.6,2.2c0,1.4,1.2,1.7,2.2,2c1,0.3,1.7,0.6,1.7,1.3c0,0.6-0.5,0.9-1.6,0.9
			c-0.7,0-1.4-0.2-1.9-0.5l-0.3-0.2v1.4l0.1,0.1c0.6,0.3,1.4,0.5,2.2,0.5c1.7,0,2.7-0.8,2.7-2.1C25.3,418.2,23.9,417.8,22.8,417.5z"
			/>
		<polygon class="st0" points="38.5,415.7 41,415.7 41,421.9 42.2,421.9 42.2,415.7 44.6,415.7 44.6,414.5 38.5,414.5 		"/>
		<rect x="58.2" y="414.5" class="st0" width="1.2" height="7.4"/>
		<polygon class="st0" points="78.7,419.9 74.9,414.5 73.7,414.5 73.7,421.9 74.9,421.9 74.9,416.5 78.6,421.8 78.7,421.9 
			79.9,421.9 79.9,414.5 78.7,414.5 		"/>
	</g>
</g>
</svg>
